<?xml version="1.0" standalone="no"?>
<!DOCTYPE svg PUBLIC "-//W3C//DTD SVG 20010904//EN"
 "http://www.w3.org/TR/2001/REC-SVG-20010904/DTD/svg10.dtd">
<svg version="1.0" xmlns="http://www.w3.org/2000/svg"
 width="497.000000pt" height="246.000000pt" viewBox="0 0 497.000000 246.000000"
 preserveAspectRatio="xMidYMid meet">

<g transform="translate(0.000000,246.000000) scale(0.100000,-0.100000)"
fill="#000000" stroke="none">
<path d="M37 2442 c-36 -40 -9 -102 45 -102 51 0 78 69 40 103 -24 22 -65 21
-85 -1z"/>
<path d="M227 2442 c-36 -40 -9 -102 45 -102 51 0 78 69 40 103 -24 22 -65 21
-85 -1z m75 -9 c22 -20 23 -41 1 -65 -20 -22 -41 -23 -65 -1 -22 20 -23 41 -1
65 20 22 41 23 65 1z"/>
<path d="M420 2440 c-11 -11 -20 -29 -20 -40 0 -26 34 -60 60 -60 26 0 60 34
60 60 0 11 -9 29 -20 40 -11 11 -29 20 -40 20 -11 0 -29 -9 -40 -20z m74 -6
c31 -30 9 -84 -34 -84 -24 0 -50 26 -50 50 0 24 26 50 50 50 10 0 26 -7 34
-16z"/>
<path d="M135 2135 c0 -48 2 -55 20 -55 18 0 20 7 20 55 0 48 -2 55 -20 55
-18 0 -20 -7 -20 -55z"/>
<path d="M195 2135 l0 -55 37 0 c38 0 68 26 68 61 0 26 -34 49 -71 49 l-34 0
0 -55z m71 21 c8 -32 -3 -66 -22 -66 -10 0 -14 13 -14 45 0 33 4 45 15 45 8 0
17 -11 21 -24z"/>
<path d="M635 2135 c0 -55 0 -55 30 -54 17 0 24 3 18 6 -15 5 -18 43 -4 43 5
0 12 -6 14 -12 3 -7 6 0 6 16 1 24 -1 27 -14 16 -13 -10 -15 -9 -15 9 0 23 35
30 43 9 3 -8 6 -6 6 5 1 14 -7 17 -41 17 l-43 0 0 -55z"/>
<path d="M740 2180 c0 -5 5 -10 10 -10 6 0 10 5 10 10 0 6 -4 10 -10 10 -5 0
-10 -4 -10 -10z"/>
<path d="M1005 2135 c0 -31 4 -55 10 -55 6 0 9 18 7 43 l-4 42 33 -42 c18 -24
36 -43 40 -43 4 0 9 25 11 55 3 49 1 55 -16 55 -16 0 -17 -3 -8 -12 7 -7 12
-21 12 -32 -1 -18 -4 -17 -29 12 -41 48 -56 43 -56 -23z"/>
<path d="M1775 2135 l0 -56 45 3 c36 2 45 7 48 23 2 18 2 18 -8 3 -6 -10 -20
-18 -31 -18 -19 0 -21 5 -17 50 3 45 1 50 -17 50 -18 0 -20 -7 -20 -55z"/>
<path d="M2121 2174 c7 -9 30 -34 50 -56 l37 -41 3 57 c3 35 0 56 -7 56 -6 0
-9 -13 -6 -32 l5 -33 -27 33 c-15 17 -37 32 -48 32 -18 0 -19 -2 -7 -16z"/>
<path d="M3025 2135 l0 -56 45 3 c36 2 45 7 48 23 2 18 2 18 -8 3 -6 -10 -20
-18 -31 -18 -19 0 -21 5 -17 50 3 45 1 50 -17 50 -18 0 -20 -7 -20 -55z"/>
<path d="M3428 2142 c3 -40 1 -49 -13 -49 -12 0 -16 9 -15 31 3 55 2 60 -15
46 -16 -13 -20 -57 -7 -76 4 -6 23 -11 43 -12 34 -1 35 0 31 28 -3 18 0 30 7
30 6 0 11 -13 11 -30 0 -20 5 -30 15 -30 10 0 15 10 15 28 0 36 -14 56 -34 49
-11 -5 -16 -1 -16 13 0 11 -6 20 -12 20 -9 0 -12 -15 -10 -48z"/>
<path d="M3567 2172 c-21 -23 -21 -41 -1 -70 22 -32 73 -27 93 9 13 24 13 29
-2 53 -21 31 -66 35 -90 8z m68 -11 c9 -31 -5 -71 -25 -71 -22 0 -34 32 -26
66 8 29 42 33 51 5z"/>
<path d="M3686 2174 c-3 -9 -6 -33 -6 -55 0 -30 4 -39 18 -39 14 0 17 8 15 45
0 25 3 45 8 45 5 0 9 5 9 10 0 16 -37 11 -44 -6z"/>
<path d="M3775 2135 l0 -55 41 0 c31 0 44 5 49 18 5 14 4 15 -6 5 -20 -20 -49
-16 -49 7 0 22 15 27 23 8 3 -7 6 0 6 16 1 24 -1 27 -14 16 -13 -10 -15 -9
-15 9 0 23 35 30 43 9 3 -8 6 -6 6 5 1 14 -7 17 -41 17 l-43 0 0 -55z"/>
<path d="M4100 2135 c0 -42 3 -55 15 -55 12 0 15 13 15 55 0 42 -3 55 -15 55
-12 0 -15 -13 -15 -55z"/>
<path d="M914 2166 c-10 -26 1 -81 16 -84 14 -2 17 23 11 91 -1 13 -21 8 -27
-7z"/>
<path d="M2032 2168 c-13 -13 -16 -47 -6 -72 7 -19 30 -21 40 -4 4 7 3 8 -5 4
-9 -6 -11 3 -10 33 3 46 -2 56 -19 39z"/>
<path d="M4604 2166 c-10 -26 1 -81 16 -84 14 -2 17 23 11 91 -1 13 -21 8 -27
-7z"/>
<path d="M730 2120 c0 -29 4 -40 15 -40 11 0 15 11 15 40 0 29 -4 40 -15 40
-11 0 -15 -11 -15 -40z"/>
<path d="M775 2120 c0 -30 4 -40 16 -40 12 0 14 7 11 29 -3 26 -1 30 17 28 12
-1 32 -12 44 -25 l22 -24 -22 6 c-15 5 -23 3 -23 -4 0 -15 52 -9 57 7 2 6 -6
21 -19 33 l-23 22 23 -7 c13 -4 22 -2 22 4 0 14 -37 14 -45 1 -4 -7 -12 -7
-18 -2 -7 4 -23 9 -37 10 -23 1 -25 -2 -25 -38z"/>
<path d="M1125 2150 c-4 -6 -4 -14 0 -18 3 -3 10 0 14 7 6 9 11 10 15 2 4 -6
-1 -14 -11 -18 -21 -8 -34 -24 -27 -35 3 -4 29 -8 58 -8 l53 0 -5 30 c-3 18 0
30 7 30 6 0 11 -13 11 -30 0 -20 5 -30 15 -30 10 0 15 10 15 30 0 17 5 30 11
30 7 0 10 -12 7 -30 -4 -23 -1 -30 12 -30 14 0 16 7 11 37 l-6 37 -56 2 -55 2
4 -34 c2 -19 0 -34 -6 -34 -6 0 -12 15 -14 33 -2 24 -8 33 -25 35 -11 2 -24
-2 -28 -8z m35 -44 c0 -3 -4 -8 -10 -11 -5 -3 -10 -1 -10 4 0 6 5 11 10 11 6
0 10 -2 10 -4z"/>
<path d="M1342 2151 c-20 -12 -11 -65 12 -69 10 -2 23 1 30 8 8 8 7 10 -5 5
-10 -4 -19 0 -22 9 -5 11 0 16 14 16 14 0 19 5 17 17 -4 20 -27 27 -46 14z
m28 -11 c0 -5 -5 -10 -11 -10 -5 0 -7 5 -4 10 3 6 8 10 11 10 2 0 4 -4 4 -10z"/>
<path d="M1885 2149 c-4 -6 -4 -13 0 -17 4 -4 10 -1 12 6 8 22 20 12 21 -18 0
-17 -4 -28 -9 -24 -5 3 -6 10 -3 16 4 6 1 9 -7 6 -8 -3 -15 -12 -17 -21 -3
-13 4 -17 32 -17 34 0 36 1 30 28 -3 15 -7 33 -10 40 -4 15 -40 16 -49 1z"/>
<path d="M1963 2144 c-4 -10 1 -22 10 -29 21 -15 22 -29 2 -21 -8 3 -15 1 -15
-4 0 -6 11 -10 25 -10 18 0 25 5 25 20 0 11 -7 23 -15 26 -8 4 -15 11 -15 16
0 6 7 8 15 4 8 -3 15 -1 15 4 0 17 -40 11 -47 -6z"/>
<path d="M2235 2149 c-4 -6 -4 -13 0 -17 4 -4 10 -1 12 6 8 22 20 12 21 -18 0
-17 -4 -28 -9 -24 -5 3 -6 10 -3 16 4 6 1 9 -7 6 -8 -3 -15 -12 -17 -21 -3
-13 4 -17 32 -17 34 0 36 1 30 28 -3 15 -7 33 -10 40 -4 15 -40 16 -49 1z"/>
<path d="M2315 2119 c0 -25 4 -39 12 -39 8 0 13 12 13 30 0 17 5 30 11 30 7 0
10 -12 7 -30 -4 -23 -1 -30 12 -30 13 0 16 7 12 30 -3 18 0 30 7 30 6 0 11
-13 11 -30 0 -20 5 -30 15 -30 16 0 21 46 7 66 -4 6 -30 11 -57 11 l-50 1 0
-39z"/>
<path d="M2450 2145 c-18 -21 -4 -65 20 -65 10 0 22 5 25 10 4 6 1 9 -6 8 -6
-2 -14 3 -16 10 -3 7 4 12 17 12 18 0 19 3 10 20 -13 24 -33 26 -50 5z"/>
<path d="M3142 2151 c-20 -12 -11 -65 12 -69 10 -2 23 1 30 8 8 8 7 10 -5 5
-10 -4 -19 0 -22 9 -5 11 0 16 14 16 14 0 19 5 17 17 -4 20 -27 27 -46 14z
m28 -11 c0 -5 -5 -10 -11 -10 -5 0 -7 5 -4 10 3 6 8 10 11 10 2 0 4 -4 4 -10z"/>
<path d="M3205 2120 c0 -39 0 -40 36 -40 36 0 36 0 30 37 -6 33 -10 38 -36 40
-29 2 -30 1 -30 -37z m45 -5 c0 -14 -4 -25 -10 -25 -5 0 -10 11 -10 25 0 14 5
25 10 25 6 0 10 -11 10 -25z"/>
<path d="M3304 2152 c-5 -4 -11 -28 -12 -54 -1 -37 2 -48 14 -48 8 0 12 5 9
10 -3 6 4 10 17 10 19 0 20 -2 8 -11 -13 -9 -13 -10 0 -6 8 2 16 11 18 20 3
12 -3 17 -20 17 -19 0 -24 5 -23 24 0 30 15 47 15 18 0 -12 4 -22 9 -22 9 0
21 24 21 41 0 11 -40 12 -56 1z"/>
<path d="M3880 2120 c0 -29 4 -40 15 -40 10 0 15 10 15 30 0 17 5 30 11 30 7
0 10 -12 7 -30 -4 -23 -1 -30 12 -30 13 0 16 7 12 30 -3 18 0 30 7 30 6 0 11
-13 11 -30 0 -20 5 -30 15 -30 16 0 21 46 7 66 -4 5 -31 11 -59 12 l-53 2 0
-40z"/>
<path d="M4015 2104 c0 -44 3 -54 17 -54 11 0 15 5 12 15 -4 10 0 15 14 15 23
0 37 30 27 59 -4 13 -15 19 -38 19 l-32 0 0 -54z m45 16 c0 -16 -4 -30 -10
-30 -11 0 -14 43 -3 53 11 12 13 8 13 -23z"/>
<path d="M4150 2145 c-24 -29 8 -75 44 -62 21 8 22 63 0 71 -23 9 -30 8 -44
-9z m40 -25 c0 -16 -4 -30 -10 -30 -5 0 -10 14 -10 30 0 17 5 30 10 30 6 0 10
-13 10 -30z"/>
<path d="M4236 2125 c18 -45 18 -66 -1 -59 -8 4 -15 1 -15 -5 0 -24 31 -9 44
22 24 58 28 77 17 77 -6 0 -10 -3 -10 -7 1 -5 1 -15 0 -23 -1 -13 -3 -13 -10
0 -6 8 -7 18 -5 22 3 4 -4 8 -15 8 -19 0 -19 -2 -5 -35z"/>
<path d="M4305 2119 c0 -29 4 -39 16 -39 12 0 14 7 11 30 -3 18 0 30 7 30 6 0
11 -13 11 -30 0 -20 5 -30 15 -30 10 0 15 10 15 30 0 17 5 30 11 30 7 0 10
-12 7 -30 -4 -23 -1 -30 12 -30 14 0 16 7 11 38 l-6 37 -55 2 -55 1 0 -39z"/>
<path d="M4444 2146 c-16 -42 20 -86 48 -58 7 7 4 10 -7 9 -10 -1 -20 4 -22
11 -3 7 4 12 16 12 24 0 27 10 9 28 -16 16 -37 15 -44 -2z m36 -6 c0 -5 -4
-10 -10 -10 -5 0 -10 5 -10 10 0 6 5 10 10 10 6 0 10 -4 10 -10z"/>
<path d="M4510 2121 c0 -30 4 -41 15 -41 10 0 15 10 15 30 0 17 5 30 11 30 7
0 10 -12 7 -30 -4 -23 -1 -30 12 -30 14 0 16 7 11 38 -6 33 -10 37 -39 40 -31
3 -32 2 -32 -37z"/>
<path d="M2115 2090 c-3 -5 3 -10 15 -10 12 0 18 5 15 10 -3 6 -10 10 -15 10
-5 0 -12 -4 -15 -10z"/>
<path d="M1243 1983 c687 -2 1807 -2 2490 0 683 1 122 2 -1248 2 -1369 0
-1928 -1 -1242 -2z"/>
<path d="M91 1840 c-8 -21 -4 -110 4 -110 6 0 9 18 7 43 -3 45 -9 75 -11 67z"/>
<path d="M147 1833 c-14 -14 -6 -25 9 -12 13 10 17 10 24 -1 9 -15 -2 -42 -28
-72 -14 -17 -13 -18 21 -18 21 0 37 5 37 11 0 6 -9 8 -20 4 -24 -8 -25 -1 -4
35 10 15 14 35 11 44 -6 16 -38 22 -50 9z"/>
<path d="M243 1833 c14 -3 17 -11 13 -28 -4 -14 -1 -25 6 -27 19 -7 0 -38 -23
-38 -12 0 -20 -3 -16 -6 3 -4 18 -4 32 0 23 6 25 10 22 54 -3 42 -6 47 -27 49
-17 1 -19 0 -7 -4z"/>
<path d="M321 1806 c-26 -41 -26 -46 -1 -46 11 0 20 -7 20 -15 0 -21 18 -19
22 2 5 28 -3 93 -12 93 -5 0 -18 -15 -29 -34z m19 -16 c0 -11 -7 -20 -15 -20
-13 0 -14 4 -5 20 6 11 13 20 15 20 3 0 5 -9 5 -20z"/>
<path d="M855 1785 l0 -55 43 0 c34 0 42 3 41 18 0 10 -3 12 -6 5 -2 -7 -16
-13 -29 -13 -22 0 -24 4 -24 46 0 46 0 46 30 42 17 -3 30 -1 30 4 0 4 -19 8
-42 8 l-43 0 0 -55z"/>
<path d="M995 1827 c3 -6 -5 -17 -17 -22 -17 -7 -23 -18 -23 -40 0 -27 4 -30
34 -33 28 -3 33 -1 27 13 -3 9 -6 34 -6 56 0 21 -4 39 -10 39 -5 0 -7 -6 -5
-13z m0 -57 c0 -13 -5 -25 -11 -27 -13 -4 -23 25 -16 45 7 21 27 8 27 -18z"/>
<path d="M1975 1785 c0 -43 3 -55 15 -55 12 0 15 11 13 51 l-2 51 30 -4 c16
-3 29 -1 29 4 0 4 -19 8 -42 8 l-43 0 0 -55z"/>
<path d="M2276 1825 c4 -9 0 -15 -9 -15 -23 0 -40 -27 -33 -55 5 -20 13 -25
36 -25 30 0 30 1 30 55 0 42 -4 55 -15 55 -9 0 -12 -6 -9 -15z m4 -56 c0 -38
-24 -35 -28 4 -2 19 1 27 12 27 11 0 16 -10 16 -31z"/>
<path d="M3617 1822 c-20 -22 -22 -63 -5 -80 20 -20 47 -14 54 12 7 29 -1 46
-22 46 -17 0 -18 12 -2 28 7 7 8 12 2 12 -6 0 -18 -8 -27 -18z m33 -57 c0 -16
-6 -25 -15 -25 -9 0 -15 9 -15 25 0 16 6 25 15 25 9 0 15 -9 15 -25z"/>
<path d="M3740 1809 c14 -19 20 -39 17 -55 -3 -18 0 -24 13 -24 13 0 16 6 12
26 -3 17 3 36 17 55 16 21 18 29 7 29 -7 0 -16 -9 -19 -20 -3 -11 -10 -20 -15
-20 -6 0 -14 9 -17 20 -3 11 -13 20 -21 20 -12 0 -11 -6 6 -31z"/>
<path d="M912 1801 c-10 -6 -10 -10 3 -21 13 -11 15 -9 15 9 0 24 0 24 -18 12z"/>
<path d="M1035 1769 c0 -22 5 -39 10 -39 6 0 10 12 10 28 0 15 5 27 10 27 6 0
10 -12 10 -27 0 -16 4 -28 10 -28 6 0 9 16 7 39 -4 36 -7 40 -31 39 -24 -1
-27 -4 -26 -39z"/>
<path d="M1115 1801 c-3 -5 -1 -13 5 -16 8 -5 8 -11 0 -20 -16 -19 -5 -32 25
-32 19 0 25 4 21 14 -3 8 -6 26 -6 39 0 17 -6 24 -19 24 -11 0 -22 -4 -26 -9z
m35 -11 c0 -5 -4 -10 -10 -10 -5 0 -10 5 -10 10 0 6 5 10 10 10 6 0 10 -4 10
-10z m0 -29 c0 -6 -4 -13 -10 -16 -5 -3 -10 1 -10 9 0 9 5 16 10 16 6 0 10 -4
10 -9z"/>
<path d="M2034 1799 c-3 -6 -1 -16 5 -22 8 -8 11 -5 11 11 0 24 -5 28 -16 11z"/>
<path d="M2069 1805 c0 0 -1 -17 -2 -38 -1 -21 3 -37 9 -37 7 0 9 10 6 25 -3
17 1 27 12 31 23 9 20 23 -4 21 -11 -1 -20 -1 -21 -2z"/>
<path d="M2129 1808 c-6 -21 -1 -78 6 -78 6 0 9 17 7 40 -3 33 -9 50 -13 38z"/>
<path d="M2170 1796 c-28 -35 13 -88 44 -55 8 9 7 11 -6 6 -21 -7 -40 15 -32
37 7 19 21 21 27 4 2 -7 8 -10 12 -6 10 9 -3 28 -19 28 -8 0 -19 -7 -26 -14z"/>
<path d="M3818 1785 c-19 -43 24 -74 53 -37 13 15 12 16 -3 4 -22 -18 -38 -7
-38 24 0 25 15 33 23 12 2 -7 8 -10 12 -6 4 4 4 11 0 17 -11 19 -35 12 -47
-14z"/>
<path d="M3895 1800 c-4 -6 -4 -14 -1 -17 3 -4 6 -1 6 5 0 27 17 9 18 -18 0
-17 -4 -28 -9 -24 -5 3 -7 10 -4 15 4 5 1 9 -4 9 -6 0 -11 -9 -11 -19 0 -15 7
-19 28 -19 27 1 28 3 23 37 -6 36 -32 54 -46 31z"/>
<path d="M3960 1768 c0 -25 5 -38 13 -38 9 0 12 9 9 29 -6 40 18 44 48 8 24
-30 24 -30 2 -25 -12 4 -22 2 -22 -3 0 -5 9 -9 20 -9 27 0 38 30 17 42 -21 11
-22 32 -2 24 8 -3 15 -1 15 4 0 5 -22 8 -50 7 l-50 -1 0 -38z"/>
<path d="M83 1473 c14 -3 17 -11 13 -28 -4 -14 -1 -25 6 -27 19 -7 0 -38 -23
-38 -12 0 -20 -3 -16 -6 3 -4 18 -4 32 0 23 6 25 10 22 54 -3 42 -6 47 -27 49
-17 1 -19 0 -7 -4z"/>
<path d="M161 1446 c-26 -41 -26 -46 -1 -46 11 0 20 -7 20 -15 0 -21 18 -19
22 2 5 28 -3 93 -12 93 -5 0 -18 -15 -29 -34z m19 -16 c0 -11 -7 -20 -15 -20
-13 0 -14 4 -5 20 6 11 13 20 15 20 3 0 5 -9 5 -20z"/>
<path d="M234 1465 c-4 -9 3 -23 17 -33 27 -23 20 -57 -11 -49 -11 3 -20 1
-20 -4 0 -10 21 -12 44 -3 25 10 21 63 -6 73 l-23 9 25 10 c25 11 25 11 2 11
-12 1 -25 -6 -28 -14z"/>
<path d="M317 1462 c-20 -22 -22 -63 -5 -80 20 -20 47 -14 54 12 7 29 -1 46
-22 46 -17 0 -18 12 -2 28 7 7 8 12 2 12 -6 0 -18 -8 -27 -18z m33 -57 c0 -16
-6 -25 -15 -25 -9 0 -15 9 -15 25 0 16 6 25 15 25 9 0 15 -9 15 -25z"/>
<path d="M755 1425 c0 -31 4 -55 10 -55 6 0 9 18 8 43 l-3 42 22 -45 21 -45
19 40 18 40 -3 -37 c-2 -29 1 -38 13 -38 12 0 15 12 15 55 0 65 -14 71 -39 18
l-18 -38 -19 38 c-28 54 -44 48 -44 -18z"/>
<path d="M1015 1425 c0 -30 5 -55 10 -55 6 0 10 12 10 28 0 15 5 28 10 29 6 1
10 -11 10 -27 0 -17 4 -30 10 -30 6 0 9 17 7 41 -4 34 -7 40 -23 36 -14 -4
-19 0 -19 14 0 10 -3 19 -7 19 -5 0 -8 -25 -8 -55z"/>
<path d="M1235 1425 c0 -42 3 -55 15 -55 12 0 14 11 12 55 -5 74 -27 74 -27 0z"/>
<path d="M1990 1454 c-6 -16 -17 -41 -25 -56 -11 -24 -11 -28 1 -28 8 0 13 3
13 8 -4 22 3 32 21 32 18 0 25 -10 21 -32 0 -5 8 -8 18 -8 18 0 18 3 -6 53
-32 66 -30 65 -43 31z m16 -31 c-10 -10 -19 5 -10 18 6 11 8 11 12 0 2 -7 1
-15 -2 -18z"/>
<path d="M3607 1473 c-14 -14 -6 -25 9 -12 13 10 17 10 24 -1 9 -15 -2 -42
-28 -72 -14 -17 -13 -18 21 -18 21 0 37 5 37 11 0 6 -9 8 -20 4 -24 -8 -25 -1
-4 35 10 15 14 35 11 44 -6 16 -38 22 -50 9z"/>
<path d="M3740 1449 c14 -19 20 -39 17 -55 -3 -18 0 -24 13 -24 13 0 16 6 12
26 -3 17 3 36 17 55 16 21 18 29 7 29 -7 0 -16 -9 -19 -20 -3 -11 -10 -20 -15
-20 -6 0 -14 9 -17 20 -3 11 -13 20 -21 20 -12 0 -11 -6 6 -31z"/>
<path d="M900 1410 c0 -26 5 -40 13 -40 9 0 11 12 9 40 -2 22 -8 40 -13 40 -5
0 -9 -18 -9 -40z"/>
<path d="M950 1436 c-28 -35 13 -88 44 -55 8 9 7 11 -6 6 -11 -4 -21 0 -27 11
-13 24 1 44 24 36 13 -5 16 -4 11 4 -10 16 -31 15 -46 -2z"/>
<path d="M1095 1441 c-3 -5 -1 -13 5 -16 8 -5 8 -11 0 -20 -16 -19 -5 -32 25
-32 19 0 25 4 21 14 -3 8 -6 26 -6 39 0 17 -6 24 -19 24 -11 0 -22 -4 -26 -9z
m35 -11 c0 -5 -4 -10 -10 -10 -5 0 -10 5 -10 10 0 6 5 10 10 10 6 0 10 -4 10
-10z m0 -29 c0 -6 -4 -13 -10 -16 -5 -3 -10 1 -10 9 0 9 5 16 10 16 6 0 10 -4
10 -9z"/>
<path d="M1170 1435 c-18 -21 -4 -65 20 -65 10 0 21 4 24 9 3 5 -2 8 -12 7
-12 -1 -18 8 -20 27 -3 27 12 38 21 15 2 -7 8 -10 12 -6 10 9 -3 28 -19 28 -8
0 -19 -7 -26 -15z"/>
<path d="M2073 1434 c-4 -10 0 -20 10 -26 21 -11 22 -32 2 -24 -8 3 -15 1 -15
-4 0 -13 37 -13 45 1 4 6 -3 21 -15 34 -20 22 -21 23 -3 28 17 4 17 5 0 6 -10
0 -20 -6 -24 -15z"/>
<path d="M2135 1409 c0 -22 5 -39 10 -39 6 0 10 12 10 28 0 15 5 27 10 27 6 0
10 -12 10 -27 0 -16 4 -28 10 -28 6 0 9 16 7 39 -4 36 -7 40 -31 39 -24 -1
-27 -4 -26 -39z"/>
<path d="M2220 1436 c-28 -35 13 -88 44 -55 8 9 7 11 -6 6 -21 -7 -40 15 -32
37 7 19 21 21 27 4 2 -7 8 -10 12 -6 10 9 -3 28 -19 28 -8 0 -19 -7 -26 -14z"/>
<path d="M2289 1445 c-7 -3 -1 -75 7 -75 6 0 9 13 6 30 -3 23 0 30 12 30 9 0
16 4 16 9 0 7 -30 12 -41 6z"/>
<path d="M3818 1425 c-19 -43 24 -74 53 -37 13 15 12 16 -3 4 -22 -18 -38 -7
-38 24 0 25 15 33 23 12 2 -7 8 -10 12 -6 4 4 4 11 0 17 -11 19 -35 12 -47
-14z"/>
<path d="M3895 1440 c-4 -6 -4 -14 -1 -17 3 -4 6 -1 6 5 0 27 17 9 18 -18 0
-17 -4 -28 -9 -24 -5 3 -7 10 -4 15 4 5 1 9 -4 9 -6 0 -11 -9 -11 -19 0 -15 7
-19 28 -19 27 1 28 3 23 37 -6 36 -32 54 -46 31z"/>
<path d="M3960 1408 c0 -25 5 -38 13 -38 9 0 12 9 9 29 -6 40 18 44 48 8 24
-30 24 -30 2 -25 -12 4 -22 2 -22 -3 0 -5 9 -9 20 -9 27 0 38 30 17 42 -21 11
-22 32 -2 24 8 -3 15 -1 15 4 0 5 -22 8 -50 7 l-50 -1 0 -38z"/>
<path d="M64 1116 c-10 -27 1 -50 26 -56 l24 -6 -24 -17 c-13 -9 -19 -17 -12
-17 37 0 67 71 40 98 -16 16 -47 15 -54 -2z m46 -21 c0 -16 -6 -25 -15 -25 -9
0 -15 9 -15 25 0 16 6 25 15 25 9 0 15 -9 15 -25z"/>
<path d="M147 1123 c-14 -14 -6 -25 9 -12 13 10 17 10 24 -1 9 -15 -2 -42 -28
-72 -14 -17 -13 -18 21 -18 21 0 37 5 37 11 0 6 -9 8 -20 4 -24 -8 -25 -1 -4
35 10 15 14 35 11 44 -6 16 -38 22 -50 9z"/>
<path d="M227 1118 c-2 -7 -1 -20 4 -29 4 -8 4 -21 -1 -29 -13 -21 0 -40 26
-40 22 0 30 11 24 35 -2 6 -3 24 -4 40 -1 23 -6 31 -22 33 -12 2 -24 -3 -27
-10z m41 -9 c-2 -6 -8 -10 -13 -10 -5 0 -11 4 -13 10 -2 6 4 11 13 11 9 0 15
-5 13 -11z m0 -62 c2 -10 -3 -17 -12 -17 -10 0 -16 9 -16 21 0 24 23 21 28 -4z"/>
<path d="M300 1121 c0 -4 11 -6 25 -3 29 5 30 -1 10 -57 -8 -22 -11 -41 -6
-41 4 0 15 25 23 55 l15 55 -33 0 c-19 0 -34 -4 -34 -9z"/>
<path d="M885 1075 l0 -55 43 0 c34 0 42 3 41 18 0 10 -3 12 -6 5 -2 -7 -16
-13 -29 -13 -22 0 -24 4 -24 46 0 46 0 46 30 42 17 -3 30 -1 30 4 0 4 -19 8
-42 8 l-43 0 0 -55z"/>
<path d="M1915 1075 l0 -56 40 3 c39 3 40 4 41 43 1 50 -10 65 -50 65 -31 0
-31 0 -31 -55z m61 34 c7 -12 -15 -31 -28 -23 -4 3 -8 12 -8 20 0 17 26 19 36
3z m4 -59 c0 -13 -7 -20 -20 -20 -13 0 -20 7 -20 20 0 13 7 20 20 20 13 0 20
-7 20 -20z"/>
<path d="M3547 1123 c-10 -9 -8 -75 2 -91 26 -42 75 25 53 73 -11 23 -40 33
-55 18z m43 -48 c0 -48 -23 -64 -35 -24 -9 29 2 69 20 69 11 0 15 -12 15 -45z"/>
<path d="M3667 1118 c-2 -7 -1 -20 4 -29 4 -8 4 -21 -1 -29 -13 -21 0 -40 26
-40 22 0 30 11 24 35 -2 6 -3 24 -4 40 -1 23 -6 31 -22 33 -12 2 -24 -3 -27
-10z m41 -9 c-2 -6 -8 -10 -13 -10 -5 0 -11 4 -13 10 -2 6 4 11 13 11 9 0 15
-5 13 -11z m0 -62 c2 -10 -3 -17 -12 -17 -10 0 -16 9 -16 21 0 24 23 21 28 -4z"/>
<path d="M3800 1099 c14 -19 20 -39 17 -55 -3 -18 0 -24 13 -24 13 0 16 6 12
26 -3 17 3 36 17 55 16 21 18 29 7 29 -7 0 -16 -9 -19 -20 -3 -11 -10 -20 -15
-20 -6 0 -14 9 -17 20 -3 11 -13 20 -21 20 -12 0 -11 -6 6 -31z"/>
<path d="M942 1091 c-10 -6 -10 -10 3 -21 13 -11 15 -9 15 9 0 24 0 24 -18 12z"/>
<path d="M989 1095 c-7 -3 -1 -75 7 -75 6 0 9 13 6 30 -3 23 0 30 12 30 9 0
16 4 16 9 0 7 -30 12 -41 6z"/>
<path d="M1038 1060 c-3 -31 0 -40 12 -40 12 0 15 9 12 40 -2 22 -8 40 -12 40
-4 0 -10 -18 -12 -40z"/>
<path d="M1087 1093 c-4 -3 -7 -19 -7 -35 0 -36 25 -47 48 -22 15 15 15 16 1
6 -13 -10 -19 -9 -29 3 -18 22 -5 48 21 40 15 -5 19 -4 15 4 -8 12 -39 15 -49
4z"/>
<path d="M2029 1095 c-7 -3 -1 -75 7 -75 6 0 9 13 6 30 -3 23 0 30 12 30 9 0
16 4 16 9 0 7 -30 12 -41 6z"/>
<path d="M2082 1088 c-27 -27 -3 -73 35 -66 27 5 25 72 -2 76 -11 1 -26 -3
-33 -10z m42 -20 c3 -13 1 -27 -3 -31 -14 -14 -31 2 -31 29 0 30 26 32 34 2z"/>
<path d="M2158 1058 c-2 -26 0 -38 9 -38 8 0 13 13 13 35 0 19 5 35 11 35 7 0
10 -14 7 -35 -3 -24 0 -35 9 -35 14 0 18 47 5 67 -4 7 -17 11 -29 10 -17 -1
-22 -9 -25 -39z"/>
<path d="M2253 1093 c17 -4 16 -7 -3 -39 l-22 -34 34 1 c18 1 25 3 16 6 -22 5
-22 13 -3 39 21 28 18 34 -12 33 -18 -1 -22 -3 -10 -6z"/>
<path d="M2310 1085 c-18 -21 -4 -65 20 -65 10 0 21 4 24 9 3 5 -2 8 -12 7
-12 -1 -18 8 -20 27 -3 27 12 38 21 15 2 -7 8 -10 12 -6 10 9 -3 28 -19 28 -8
0 -19 -7 -26 -15z"/>
<path d="M3878 1075 c-19 -43 24 -74 53 -37 13 15 12 16 -3 4 -22 -18 -38 -7
-38 24 0 25 15 33 23 12 2 -7 8 -10 12 -6 4 4 4 11 0 17 -11 19 -35 12 -47
-14z"/>
<path d="M3955 1090 c-4 -6 -4 -14 -1 -17 3 -4 6 -1 6 5 0 27 17 9 18 -18 0
-17 -4 -28 -9 -24 -5 3 -7 10 -4 15 4 5 1 9 -4 9 -6 0 -11 -9 -11 -19 0 -15 7
-19 28 -19 27 1 28 3 23 37 -6 36 -32 54 -46 31z"/>
<path d="M4020 1058 c0 -25 5 -38 13 -38 9 0 12 9 9 29 -6 40 18 44 48 8 24
-30 24 -30 2 -25 -12 4 -22 2 -22 -3 0 -5 9 -9 20 -9 27 0 38 30 17 42 -21 11
-22 32 -2 24 8 -3 15 -1 15 4 0 5 -22 8 -50 7 l-50 -1 0 -38z"/>
<path d="M3630 1030 c0 -5 5 -10 10 -10 6 0 10 5 10 10 0 6 -4 10 -10 10 -5 0
-10 -4 -10 -10z"/>
<path d="M91 770 c-8 -21 -4 -110 4 -110 6 0 9 18 7 43 -3 45 -9 75 -11 67z"/>
<path d="M147 763 c-10 -9 -8 -75 2 -91 26 -42 75 25 53 73 -11 23 -40 33 -55
18z m43 -48 c0 -48 -23 -64 -35 -24 -9 29 2 69 20 69 11 0 15 -12 15 -45z"/>
<path d="M227 763 c-14 -14 -6 -25 9 -12 13 10 17 10 24 -1 9 -15 -2 -42 -28
-72 -14 -17 -13 -18 21 -18 21 0 37 5 37 11 0 6 -9 8 -20 4 -24 -8 -25 -1 -4
35 10 15 14 35 11 44 -6 16 -38 22 -50 9z"/>
<path d="M304 756 c-10 -27 1 -50 26 -56 l24 -6 -24 -17 c-13 -9 -19 -17 -12
-17 37 0 67 71 40 98 -16 16 -47 15 -54 -2z m46 -21 c0 -16 -6 -25 -15 -25 -9
0 -15 9 -15 25 0 16 6 25 15 25 9 0 15 -9 15 -25z"/>
<path d="M818 720 c4 -44 2 -49 -14 -43 -12 4 -15 3 -10 -5 12 -20 35 -13 40
11 13 63 12 87 -3 87 -13 0 -15 -10 -13 -50z"/>
<path d="M1155 715 c0 -30 5 -55 10 -55 6 0 10 14 10 32 0 17 6 33 14 36 10 3
12 -4 9 -32 -3 -25 0 -36 9 -36 15 0 17 47 4 69 -5 8 -16 11 -25 8 -11 -5 -16
-1 -16 13 0 11 -3 20 -7 20 -5 0 -8 -25 -8 -55z"/>
<path d="M1855 715 c0 -31 4 -55 10 -55 6 0 9 18 8 43 l-3 42 16 -37 c9 -21
19 -38 23 -38 4 0 15 15 24 33 l17 32 -3 -37 c-2 -29 1 -38 13 -38 12 0 15 12
15 55 0 65 -17 73 -39 20 -8 -19 -17 -35 -20 -35 -3 0 -12 16 -20 35 -23 54
-41 45 -41 -20z"/>
<path d="M2110 715 c0 -37 4 -55 13 -55 8 0 11 13 10 37 -1 21 -2 46 -2 56 -1
9 -5 17 -11 17 -5 0 -10 -25 -10 -55z"/>
<path d="M2335 715 c0 -37 4 -55 13 -55 8 0 12 18 12 55 0 37 -4 55 -12 55 -9
0 -13 -18 -13 -55z"/>
<path d="M3607 763 c-14 -14 -6 -25 9 -12 13 10 17 10 24 -1 9 -15 -2 -42 -28
-72 -14 -17 -13 -18 21 -18 21 0 37 5 37 11 0 6 -9 8 -20 4 -24 -8 -25 -1 -4
35 10 15 14 35 11 44 -6 16 -38 22 -50 9z"/>
<path d="M3740 739 c14 -19 20 -39 17 -55 -3 -18 0 -24 13 -24 13 0 16 6 12
26 -3 17 3 36 17 55 16 21 18 29 7 29 -7 0 -16 -9 -19 -20 -3 -11 -10 -20 -15
-20 -6 0 -14 9 -17 20 -3 11 -13 20 -21 20 -12 0 -11 -6 6 -31z"/>
<path d="M870 726 c-20 -26 -8 -61 22 -64 22 -3 29 2 34 22 11 44 -29 74 -56
42z m38 -29 c2 -19 -1 -27 -12 -27 -11 0 -16 10 -16 31 0 38 24 35 28 -4z"/>
<path d="M945 729 c-4 -6 4 -22 16 -36 l24 -26 -22 6 c-13 3 -23 1 -23 -4 0
-5 9 -9 20 -9 27 0 38 30 17 42 -21 11 -22 32 -2 24 8 -3 15 -1 15 4 0 13 -37
13 -45 -1z"/>
<path d="M1010 725 c-18 -21 -4 -65 20 -65 10 0 21 4 24 9 3 5 -2 8 -12 7 -12
-1 -18 8 -20 27 -3 27 12 38 21 15 2 -7 8 -10 12 -6 10 9 -3 28 -19 28 -8 0
-19 -7 -26 -15z"/>
<path d="M1080 686 c0 -31 4 -56 10 -56 5 0 7 6 4 14 -4 10 2 16 18 18 19 2
23 9 23 38 0 31 -3 35 -27 38 -28 3 -28 2 -28 -52z m44 1 c-3 -9 -10 -17 -15
-17 -14 0 -22 27 -15 47 6 15 8 15 22 2 8 -9 12 -23 8 -32z"/>
<path d="M1998 700 c-3 -31 0 -40 12 -40 12 0 15 9 12 40 -2 22 -8 40 -12 40
-4 0 -10 -18 -12 -40z"/>
<path d="M2047 733 c-4 -3 -7 -19 -7 -35 0 -36 25 -47 48 -22 15 15 15 16 1 6
-13 -10 -19 -9 -29 3 -18 22 -5 48 21 40 15 -5 19 -4 15 4 -8 12 -39 15 -49 4z"/>
<path d="M2149 727 c7 -9 11 -28 9 -42 -3 -15 -1 -25 7 -25 17 0 4 72 -15 78
-13 5 -13 3 -1 -11z"/>
<path d="M2197 734 c-14 -14 -7 -26 8 -14 9 7 18 10 22 6 4 -3 -3 -13 -15 -22
-31 -22 -28 -43 6 -42 27 1 28 3 23 37 -6 34 -28 51 -44 35z m33 -42 c0 -13
-12 -22 -22 -16 -10 6 -1 24 13 24 5 0 9 -4 9 -8z"/>
<path d="M2261 718 c-5 -13 -5 -31 1 -40 11 -23 44 -23 52 -2 5 14 4 15 -8 5
-8 -7 -20 -10 -26 -6 -13 8 -13 55 0 55 6 0 10 -4 10 -10 0 -5 7 -10 16 -10
14 0 14 3 4 15 -18 22 -39 18 -49 -7z"/>
<path d="M2383 724 c-4 -10 1 -22 10 -29 21 -15 22 -29 2 -21 -8 3 -15 1 -15
-4 0 -14 37 -12 46 2 4 6 -2 19 -14 29 -25 20 -29 34 -7 25 8 -3 15 -1 15 4 0
17 -30 11 -37 -6z"/>
<path d="M3818 715 c-19 -43 24 -74 53 -37 13 15 12 16 -3 4 -22 -18 -38 -7
-38 24 0 25 15 33 23 12 2 -7 8 -10 12 -6 4 4 4 11 0 17 -11 19 -35 12 -47
-14z"/>
<path d="M3895 730 c-4 -6 -4 -14 -1 -17 3 -4 6 -1 6 5 0 27 17 9 18 -18 0
-17 -4 -28 -9 -24 -5 3 -7 10 -4 15 4 5 1 9 -4 9 -6 0 -11 -9 -11 -19 0 -15 7
-19 28 -19 27 1 28 3 23 37 -6 36 -32 54 -46 31z"/>
<path d="M3960 698 c0 -25 5 -38 13 -38 9 0 12 9 9 29 -6 40 18 44 48 8 24
-30 24 -30 2 -25 -12 4 -22 2 -22 -3 0 -5 9 -9 20 -9 27 0 38 30 17 42 -21 11
-22 32 -2 24 8 -3 15 -1 15 4 0 5 -22 8 -50 7 l-50 -1 0 -38z"/>
<path d="M67 398 c-2 -7 -1 -20 4 -29 4 -8 4 -21 -1 -29 -13 -21 0 -40 26 -40
22 0 30 11 24 35 -2 6 -3 24 -4 40 -1 23 -6 31 -22 33 -12 2 -24 -3 -27 -10z
m41 -9 c-2 -6 -8 -10 -13 -10 -5 0 -11 4 -13 10 -2 6 4 11 13 11 9 0 15 -5 13
-11z m0 -62 c2 -10 -3 -17 -12 -17 -10 0 -16 9 -16 21 0 24 23 21 28 -4z"/>
<path d="M163 403 c14 -3 17 -11 13 -28 -4 -14 -1 -25 6 -27 19 -7 0 -38 -23
-38 -12 0 -20 -3 -16 -6 3 -4 18 -4 32 0 23 6 25 10 22 54 -3 42 -6 47 -27 49
-17 1 -19 0 -7 -4z"/>
<path d="M220 401 c0 -4 11 -6 25 -3 29 5 30 -1 10 -57 -8 -22 -11 -41 -6 -41
4 0 15 25 23 55 l15 55 -33 0 c-19 0 -34 -4 -34 -9z"/>
<path d="M321 376 c-26 -41 -26 -46 -1 -46 11 0 20 -7 20 -15 0 -21 18 -19 22
2 5 28 -3 93 -12 93 -5 0 -18 -15 -29 -34z m19 -16 c0 -11 -7 -20 -15 -20 -13
0 -14 4 -5 20 6 11 13 20 15 20 3 0 5 -9 5 -20z"/>
<path d="M830 384 c-6 -16 -17 -41 -25 -56 -11 -24 -11 -28 1 -28 8 0 13 3 13
8 -4 22 3 32 21 32 18 0 25 -10 21 -32 0 -5 8 -8 18 -8 18 0 18 3 -6 53 -32
66 -30 65 -43 31z m16 -31 c-10 -10 -19 5 -10 18 6 11 8 11 12 0 2 -7 1 -15
-2 -18z"/>
<path d="M955 397 c3 -6 -5 -17 -17 -22 -17 -7 -23 -18 -23 -40 0 -27 4 -30
34 -33 28 -3 33 -1 27 13 -3 9 -6 34 -6 56 0 21 -4 39 -10 39 -5 0 -7 -6 -5
-13z m0 -57 c0 -13 -5 -25 -11 -27 -13 -4 -23 25 -16 45 7 21 27 8 27 -18z"/>
<path d="M1875 355 c0 -44 3 -55 16 -55 12 0 15 7 12 28 l-4 27 23 -27 c13
-16 30 -28 38 -28 9 0 5 9 -10 26 -19 19 -22 27 -11 33 26 16 8 46 -29 49
l-35 3 0 -56z m53 28 c-5 -25 -28 -28 -28 -4 0 12 6 21 16 21 9 0 14 -7 12
-17z"/>
<path d="M3617 392 c-20 -22 -22 -63 -5 -80 20 -20 47 -14 54 12 7 29 -1 46
-22 46 -17 0 -18 12 -2 28 7 7 8 12 2 12 -6 0 -18 -8 -27 -18z m33 -57 c0 -16
-6 -25 -15 -25 -9 0 -15 9 -15 25 0 16 6 25 15 25 9 0 15 -9 15 -25z"/>
<path d="M3740 379 c14 -19 20 -39 17 -55 -3 -18 0 -24 13 -24 13 0 16 6 12
26 -3 17 3 36 17 55 16 21 18 29 7 29 -7 0 -16 -9 -19 -20 -3 -11 -10 -20 -15
-20 -6 0 -14 9 -17 20 -3 11 -13 20 -21 20 -12 0 -11 -6 6 -31z"/>
<path d="M999 375 c-7 -3 -1 -75 7 -75 6 0 9 13 6 30 -3 23 0 30 12 30 9 0 16
4 16 9 0 7 -30 12 -41 6z"/>
<path d="M1048 340 c-3 -31 0 -40 12 -40 12 0 15 9 12 40 -2 22 -8 40 -12 40
-4 0 -10 -18 -12 -40z"/>
<path d="M1097 374 c-14 -14 -7 -26 8 -14 9 7 18 10 22 6 4 -3 -3 -13 -15 -22
-31 -22 -28 -43 6 -42 27 1 28 3 23 37 -6 34 -28 51 -44 35z m33 -42 c0 -13
-12 -22 -22 -16 -10 6 -1 24 13 24 5 0 9 -4 9 -8z"/>
<path d="M1160 339 c0 -25 5 -39 13 -39 7 0 12 12 12 28 0 15 5 27 10 27 6 0
10 -12 10 -27 0 -16 5 -28 11 -28 7 0 9 13 5 37 -5 32 -10 38 -34 40 -25 2
-27 -1 -27 -38z"/>
<path d="M1990 366 c-20 -26 -8 -61 22 -64 22 -3 29 2 34 22 11 44 -29 74 -56
42z m38 -29 c2 -19 -1 -27 -12 -27 -11 0 -16 10 -16 31 0 38 24 35 28 -4z"/>
<path d="M2069 376 c-6 -8 -1 -76 6 -76 6 0 10 14 10 32 0 17 6 33 14 36 10 3
12 -4 9 -32 -3 -25 0 -36 9 -36 8 0 13 13 13 35 0 19 5 35 10 35 6 0 10 -16
10 -35 0 -23 5 -35 13 -35 10 0 12 10 8 38 -6 37 -7 37 -54 38 -26 0 -47 0
-48 0z"/>
<path d="M2191 363 c0 -10 3 -13 6 -5 9 22 20 13 21 -18 0 -16 -4 -30 -10 -30
-5 0 -7 7 -4 16 4 10 1 14 -6 12 -26 -9 -13 -33 18 -36 31 -3 31 -3 25 35 -5
29 -11 39 -29 41 -16 3 -22 -2 -21 -15z"/>
<path d="M2260 340 c0 -22 5 -40 10 -40 6 0 10 18 10 40 0 22 -4 40 -10 40 -5
0 -10 -18 -10 -40z"/>
<path d="M2298 340 c2 -23 9 -40 16 -40 9 0 11 11 7 37 -8 51 -28 54 -23 3z"/>
<path d="M2340 360 c-14 -26 3 -60 30 -60 11 0 24 9 30 20 14 26 -3 60 -30 60
-11 0 -24 -9 -30 -20z m44 -6 c10 -27 7 -44 -9 -44 -18 0 -30 24 -21 45 7 20
22 19 30 -1z"/>
<path d="M3818 355 c-19 -43 24 -74 53 -37 13 15 12 16 -3 4 -22 -18 -38 -7
-38 24 0 25 15 33 23 12 2 -7 8 -10 12 -6 4 4 4 11 0 17 -11 19 -35 12 -47
-14z"/>
<path d="M3895 370 c-4 -6 -4 -14 -1 -17 3 -4 6 -1 6 5 0 27 17 9 18 -18 0
-17 -4 -28 -9 -24 -5 3 -7 10 -4 15 4 5 1 9 -4 9 -6 0 -11 -9 -11 -19 0 -15 7
-19 28 -19 27 1 28 3 23 37 -6 36 -32 54 -46 31z"/>
<path d="M3960 338 c0 -25 5 -38 13 -38 9 0 12 9 9 29 -6 40 18 44 48 8 24
-30 24 -30 2 -25 -12 4 -22 2 -22 -3 0 -5 9 -9 20 -9 27 0 38 30 17 42 -21 11
-22 32 -2 24 8 -3 15 -1 15 4 0 5 -22 8 -50 7 l-50 -1 0 -38z"/>
</g>
</svg>
